# xmcd CD database file
#
# Track frame offsets:
#	150
#	25943
#	43888
#	58157
#	66980
#	85438
#	102024
#	126452
#	143021
#	160478
#	185002
#	204042
#	237426
#	253403
#	277462
#	292342
#
# Disc length: 4138 seconds
#
# Revision: 2
# Processed by: cddbd v1.5.2PL0 Copyright (c) Steve Scherf et al.
# Submitted via: CDex 1.70beta2
#
DISCID=0b102810
DTITLE=長渕剛 - 30th Anniversary Acoustic Live DISC2
DYEAR=2010
DGENRE=Folk
TTITLE0=シェリー
TTITLE1=ひざまくら
TTITLE2=家族
TTITLE3=SITTING IN THE RAIN
TTITLE4=君は雨の日に
TTITLE5=明け方までにはケリがつく
TTITLE6=豚（BUTA）
TTITLE7=あんたとあたいは数え唄
TTITLE8=GOOD-BYE青春
TTITLE9=しょっぱい三日月の夜
TTITLE10=僕のギターにはいつもHeavy Gauge
TTITLE11=耳かきの唄
TTITLE12=顔
TTITLE13=パークハウス 701 in 1985
TTITLE14=順子
TTITLE15=乾杯
EXTD=YEAR: 2010
EXTT0=
EXTT1=
EXTT2=
EXTT3=
EXTT4=
EXTT5=
EXTT6=
EXTT7=
EXTT8=
EXTT9=
EXTT10=
EXTT11=
EXTT12=
EXTT13=
EXTT14=
EXTT15=
PLAYORDER=
